<svg xmlns="http://www.w3.org/2000/svg" xmlns:xlink="http://www.w3.org/1999/xlink" width="500" zoomAndPan="magnify" viewBox="0 0 375 374.999991" height="500" preserveAspectRatio="xMidYMid meet" version="1.0"><defs><g/></defs><path fill="#ffb715" d="M 125.617188 241.070312 C 127.941406 238.085938 129.039062 234.800781 129.152344 231.15625 C 129.351562 224.554688 135.136719 220.625 141.304688 222.890625 C 142.535156 223.339844 143.730469 223.878906 144.949219 224.359375 C 150.828125 226.675781 156.226562 225.652344 160.875 221.5625 C 165.675781 217.34375 167.359375 211.90625 165.90625 205.636719 C 164.921875 201.382812 162.460938 198.125 158.785156 195.777344 C 152.238281 191.589844 152.261719 184.113281 158.816406 179.960938 C 167.167969 174.671875 168.585938 163.527344 162.902344 156.246094 C 158.726562 150.902344 148.957031 147.238281 140.703125 153.273438 C 133.914062 158.242188 132.3125 168.410156 137.113281 175.5 C 138.476562 177.515625 140.265625 179.007812 142.304688 180.289062 C 146.273438 182.785156 147.6875 187.519531 145.777344 191.632812 C 143.996094 195.476562 139.539062 197.574219 135.488281 196.332031 C 132.300781 195.355469 130.261719 193.160156 129.5 189.894531 C 128.96875 187.621094 128.601562 185.308594 128.078125 183.035156 C 126.148438 174.679688 115.507812 168.804688 106.113281 173.28125 C 104.886719 173.863281 103.640625 174.503906 102.332031 174.804688 C 97.742188 175.867188 93.566406 173.339844 92.363281 168.78125 C 91.742188 166.417969 91.449219 163.964844 90.804688 161.613281 C 88.644531 153.730469 80.9375 148.992188 72.707031 150.386719 C 64.882812 151.710938 59.050781 158.984375 59.480469 166.882812 C 60.140625 179.007812 72.679688 186.097656 83.351562 180.375 C 89.816406 176.910156 96.574219 180.761719 96.871094 188.082031 C 97.300781 198.613281 106.25 205.683594 116.566406 203.542969 C 118.039062 203.234375 119.449219 202.507812 120.824219 201.84375 C 124.234375 200.195312 127.535156 200.15625 130.664062 202.449219 C 133.414062 204.46875 134.679688 207.222656 134.230469 210.628906 C 133.394531 216.929688 126.703125 220.144531 120.972656 217.042969 C 112.800781 212.621094 102.921875 215.492188 98.761719 223.496094 C 94.9375 230.855469 97.191406 239.882812 103.980469 244.394531 C 111.003906 249.0625 119.949219 247.722656 125.617188 241.070312 Z M 125.617188 241.070312 " fill-opacity="1" fill-rule="nonzero"/><path fill="#ffb715" d="M 82.273438 223.800781 C 89.929688 220.195312 93.429688 211.910156 90.78125 203.761719 C 88.375 196.363281 80.144531 191.667969 72.390625 193.269531 C 64.429688 194.910156 58.960938 202.160156 59.476562 210.203125 C 60.191406 221.375 71.773438 228.074219 81.210938 224.132812 C 81.515625 224.003906 81.863281 223.976562 82.273438 223.800781 Z M 82.273438 223.800781 " fill-opacity="1" fill-rule="nonzero"/><path fill="#ffb715" d="M 100.75 155.210938 C 106.777344 161.835938 116.527344 162.703125 123.152344 157.28125 C 130.042969 151.640625 131.113281 141.632812 125.574219 134.644531 C 120.117188 127.765625 110.085938 126.585938 103.089844 132 C 96.136719 137.382812 94.820312 147.34375 100.128906 154.457031 C 100.296875 154.683594 100.488281 154.898438 100.75 155.210938 Z M 100.75 155.210938 " fill-opacity="1" fill-rule="nonzero"/><g fill="#000000" fill-opacity="1"><g transform="translate(178.170343, 206.999986)"><g><path d="M 12.078125 0 L 1.015625 -30.890625 L 6.3125 -30.890625 L 11.25 -16.90625 L 14.578125 -7.4375 L 18.21875 -16.90625 L 23.515625 -30.890625 L 28.09375 -30.890625 L 37.140625 -7.5 L 40.40625 -16.90625 L 45.40625 -30.890625 L 50.640625 -30.890625 L 39.578125 0 L 34.8125 0 L 29.875 -12.734375 L 25.828125 -23.515625 L 16.90625 0 Z M 12.078125 0 "/></g></g></g><g fill="#000000" fill-opacity="1"><g transform="translate(227.571417, 206.999986)"><g><path d="M 15.65625 0.46875 C 11.925781 0.46875 9.007812 -0.367188 6.90625 -2.046875 C 4.800781 -3.734375 3.75 -6.023438 3.75 -8.921875 C 3.75 -11.742188 4.71875 -13.988281 6.65625 -15.65625 C 8.601562 -17.320312 11.1875 -18.15625 14.40625 -18.15625 L 27.015625 -18.15625 L 27.015625 -19.28125 C 27.015625 -21.695312 26.257812 -23.585938 24.75 -24.953125 C 23.25 -26.328125 21.1875 -27.015625 18.5625 -27.015625 C 16.582031 -27.015625 14.859375 -26.566406 13.390625 -25.671875 C 11.921875 -24.785156 10.929688 -23.585938 10.421875 -22.078125 L 5.359375 -22.078125 C 6.035156 -25.054688 7.550781 -27.394531 9.90625 -29.09375 C 12.269531 -30.800781 15.140625 -31.65625 18.515625 -31.65625 C 21.210938 -31.65625 23.570312 -31.148438 25.59375 -30.140625 C 27.613281 -29.128906 29.1875 -27.722656 30.3125 -25.921875 C 31.445312 -24.117188 32.015625 -22.023438 32.015625 -19.640625 L 32.015625 0 L 27.90625 0 L 27.375 -4.28125 C 24.5625 -1.113281 20.65625 0.46875 15.65625 0.46875 Z M 8.75 -8.984375 C 8.75 -7.472656 9.382812 -6.257812 10.65625 -5.34375 C 11.925781 -4.4375 13.648438 -3.984375 15.828125 -3.984375 C 17.972656 -3.984375 19.878906 -4.398438 21.546875 -5.234375 C 23.210938 -6.066406 24.539062 -7.21875 25.53125 -8.6875 C 26.519531 -10.15625 27.035156 -11.84375 27.078125 -13.75 L 14.578125 -13.75 C 12.867188 -13.75 11.46875 -13.320312 10.375 -12.46875 C 9.289062 -11.613281 8.75 -10.453125 8.75 -8.984375 Z M 8.75 -8.984375 "/></g></g></g><g fill="#000000" fill-opacity="1"><g transform="translate(262.211662, 206.999986)"><g><path d="M 16.71875 0.78125 C 12.675781 0.78125 9.429688 -0.179688 6.984375 -2.109375 C 4.546875 -4.035156 3.289062 -6.566406 3.21875 -9.703125 L 8.15625 -9.703125 C 8.226562 -7.835938 9.019531 -6.367188 10.53125 -5.296875 C 12.039062 -4.222656 14.125 -3.6875 16.78125 -3.6875 C 19.125 -3.6875 20.96875 -4.09375 22.3125 -4.90625 C 23.664062 -5.71875 24.34375 -6.820312 24.34375 -8.21875 C 24.34375 -9.601562 23.632812 -10.734375 22.21875 -11.609375 C 20.8125 -12.484375 18.601562 -13.175781 15.59375 -13.6875 C 11.625 -14.363281 8.675781 -15.453125 6.75 -16.953125 C 4.832031 -18.460938 3.875 -20.429688 3.875 -22.859375 C 3.875 -25.628906 4.929688 -27.785156 7.046875 -29.328125 C 9.171875 -30.878906 12.097656 -31.65625 15.828125 -31.65625 C 19.640625 -31.65625 22.6875 -30.8125 24.96875 -29.125 C 27.25 -27.445312 28.488281 -25.078125 28.6875 -22.015625 L 23.75 -22.015625 C 23.59375 -23.722656 22.828125 -25.023438 21.453125 -25.921875 C 20.085938 -26.816406 18.234375 -27.265625 15.890625 -27.265625 C 13.671875 -27.265625 11.9375 -26.875 10.6875 -26.09375 C 9.4375 -25.320312 8.8125 -24.242188 8.8125 -22.859375 C 8.8125 -21.546875 9.445312 -20.519531 10.71875 -19.78125 C 11.988281 -19.050781 14.226562 -18.367188 17.4375 -17.734375 C 25.332031 -16.191406 29.28125 -12.976562 29.28125 -8.09375 C 29.28125 -5.4375 28.140625 -3.289062 25.859375 -1.65625 C 23.578125 -0.03125 20.53125 0.78125 16.71875 0.78125 Z M 16.71875 0.78125 "/></g></g></g><g fill="#000000" fill-opacity="1"><g transform="translate(292.447465, 206.999986)"><g><path d="M 22.375 0.78125 C 19.957031 0.78125 17.726562 0.3125 15.6875 -0.625 C 13.644531 -1.5625 11.925781 -2.820312 10.53125 -4.40625 L 10.53125 11.90625 L 5.53125 11.90625 L 5.53125 -30.890625 L 9.640625 -30.890625 L 10.234375 -26.125 C 11.617188 -27.875 13.351562 -29.234375 15.4375 -30.203125 C 17.519531 -31.171875 19.832031 -31.65625 22.375 -31.65625 C 25.425781 -31.65625 28.132812 -30.953125 30.5 -29.546875 C 32.863281 -28.140625 34.71875 -26.222656 36.0625 -23.796875 C 37.414062 -21.378906 38.09375 -18.601562 38.09375 -15.46875 C 38.09375 -12.332031 37.414062 -9.546875 36.0625 -7.109375 C 34.71875 -4.671875 32.863281 -2.742188 30.5 -1.328125 C 28.132812 0.078125 25.425781 0.78125 22.375 0.78125 Z M 10.359375 -15.46875 C 10.359375 -13.25 10.84375 -11.273438 11.8125 -9.546875 C 12.78125 -7.828125 14.117188 -6.476562 15.828125 -5.5 C 17.535156 -4.53125 19.5 -4.046875 21.71875 -4.046875 C 23.976562 -4.046875 25.960938 -4.53125 27.671875 -5.5 C 29.378906 -6.476562 30.707031 -7.828125 31.65625 -9.546875 C 32.613281 -11.273438 33.09375 -13.25 33.09375 -15.46875 C 33.09375 -17.695312 32.613281 -19.671875 31.65625 -21.390625 C 30.707031 -23.117188 29.378906 -24.46875 27.671875 -25.4375 C 25.960938 -26.414062 23.976562 -26.90625 21.71875 -26.90625 C 19.5 -26.90625 17.535156 -26.414062 15.828125 -25.4375 C 14.117188 -24.46875 12.78125 -23.117188 11.8125 -21.390625 C 10.84375 -19.671875 10.359375 -17.695312 10.359375 -15.46875 Z M 10.359375 -15.46875 "/></g></g></g></svg>