<svg version="1.1" id="Layer_1" xmlns="http://www.w3.org/2000/svg" xmlns:xlink="http://www.w3.org/1999/xlink" x="0px" y="0px"
	 width="100%" viewBox="0 0 529 472" enable-background="new 0 0 529 472" xml:space="preserve">

    <g transform="translate(529, 0) scale(-1, 1)">

        <path fill="#FFFFFF" opacity="1.000000" stroke="none"
        d="
    M361.000000,473.000000
        C240.666702,473.000000 120.833389,473.000000 1.000064,473.000000
        C1.000043,315.666748 1.000043,158.333466 1.000021,1.000149
        C177.333237,1.000099 353.666473,1.000099 529.999756,1.000050
        C529.999878,158.333191 529.999878,315.666382 529.999939,472.999786
        C473.833344,473.000000 417.666656,473.000000 361.000000,473.000000
    M290.575104,91.943779
        C274.238373,72.783104 248.096237,68.869675 227.568283,82.511749
        C207.727142,95.697395 201.140991,122.073135 212.318970,143.581085
        C224.478699,166.978058 253.339340,175.363907 277.220734,162.439178
        C293.967285,153.375854 313.527924,162.774857 315.964294,181.184448
        C317.282135,191.142197 313.575348,199.188019 305.539185,205.083069
        C296.403076,211.784973 286.760712,211.678619 276.784882,206.860443
        C272.767517,204.920135 268.656647,202.788437 264.349548,201.894867
        C234.205887,195.641190 208.050598,216.295212 206.795670,247.075089
        C205.923492,268.466827 186.182205,279.718719 167.288513,269.592926
        C136.096725,252.876129 99.455200,273.587097 97.525398,309.025269
        C96.268974,332.097626 113.311707,353.352600 136.175125,357.227539
        C160.235031,361.305267 182.750397,347.458191 189.066727,324.425446
        C190.953949,317.543640 191.803101,310.380096 193.623810,303.476471
        C197.136612,290.156860 209.337051,282.766266 222.748215,285.868866
        C226.574478,286.754089 230.216507,288.618011 233.803436,290.326233
        C261.258545,303.401154 292.350525,286.240204 297.984100,261.818848
        C299.517548,255.171539 300.591003,248.417694 302.142090,241.774979
        C304.370209,232.232880 310.332794,225.822327 319.640167,222.967636
        C331.479797,219.336304 344.499268,225.459305 349.711517,236.694504
        C355.288849,248.716843 351.155548,262.547485 339.565277,269.843536
        C333.606720,273.594452 328.373718,277.949249 324.385162,283.841583
        C310.358765,304.562988 315.046906,334.271057 334.886230,348.786316
        C358.997589,366.427155 387.548248,355.725067 399.748932,340.100922
        C416.357849,318.831635 412.217316,286.264832 387.807007,270.800262
        C368.654266,258.666473 368.587128,236.818115 387.725922,224.583221
        C398.460419,217.720947 405.650940,208.202972 408.530121,195.777084
        C412.775635,177.454514 407.856171,161.559402 393.831879,149.229446
        C380.243042,137.282349 364.466461,134.291702 347.291656,141.062500
        C343.731262,142.466095 340.234924,144.039261 336.643890,145.356781
        C318.610870,151.973068 301.714355,140.489395 301.125244,121.203796
        C300.799683,110.546074 297.592773,100.945892 290.575104,91.943779
    M163.889160,142.397736
        C162.935135,142.179260 161.925232,142.094589 161.035217,141.722855
        C133.449417,130.200714 99.606033,149.781052 97.513390,182.423767
        C96.006355,205.931702 111.992920,227.121521 135.252426,231.917206
        C157.917679,236.590347 181.963531,222.868347 188.995026,201.248474
        C196.736755,177.444855 186.509567,153.230759 163.889160,142.397736
    M217.888687,343.399841
        C217.360565,344.043243 216.805420,344.666473 216.308273,345.332977
        C200.804413,366.118835 204.647202,395.224915 224.966675,410.953735
        C245.408585,426.777283 274.727814,423.329102 290.666931,403.226776
        C306.855865,382.809479 303.726562,353.563538 283.589355,337.080444
        C264.235443,321.238525 235.741577,323.766663 217.888687,343.399841
    z"/>
        <path fill="#000000" opacity="1.000000" stroke="none"
        d="
    M290.791473,92.230019
        C297.592773,100.945892 300.799683,110.546074 301.125244,121.203796
        C301.714355,140.489395 318.610870,151.973068 336.643890,145.356781
        C340.234924,144.039261 343.731262,142.466095 347.291656,141.062500
        C364.466461,134.291702 380.243042,137.282349 393.831879,149.229446
        C407.856171,161.559402 412.775635,177.454514 408.530121,195.777084
        C405.650940,208.202972 398.460419,217.720947 387.725922,224.583221
        C368.587128,236.818115 368.654266,258.666473 387.807007,270.800262
        C412.217316,286.264832 416.357849,318.831635 399.748932,340.100922
        C387.548248,355.725067 358.997589,366.427155 334.886230,348.786316
        C315.046906,334.271057 310.358765,304.562988 324.385162,283.841583
        C328.373718,277.949249 333.606720,273.594452 339.565277,269.843536
        C351.155548,262.547485 355.288849,248.716843 349.711517,236.694504
        C344.499268,225.459305 331.479797,219.336304 319.640167,222.967636
        C310.332794,225.822327 304.370209,232.232880 302.142090,241.774979
        C300.591003,248.417694 299.517548,255.171539 297.984100,261.818848
        C292.350525,286.240204 261.258545,303.401154 233.803436,290.326233
        C230.216507,288.618011 226.574478,286.754089 222.748215,285.868866
        C209.337051,282.766266 197.136612,290.156860 193.623810,303.476471
        C191.803101,310.380096 190.953949,317.543640 189.066727,324.425446
        C182.750397,347.458191 160.235031,361.305267 136.175125,357.227539
        C113.311707,353.352600 96.268974,332.097626 97.525398,309.025269
        C99.455200,273.587097 136.096725,252.876129 167.288513,269.592926
        C186.182205,279.718719 205.923492,268.466827 206.795670,247.075089
        C208.050598,216.295212 234.205887,195.641190 264.349548,201.894867
        C268.656647,202.788437 272.767517,204.920135 276.784882,206.860443
        C286.760712,211.678619 296.403076,211.784973 305.539185,205.083069
        C313.575348,199.188019 317.282135,191.142197 315.964294,181.184448
        C313.527924,162.774857 293.967285,153.375854 277.220734,162.439178
        C253.339340,175.363907 224.478699,166.978058 212.318970,143.581085
        C201.140991,122.073135 207.727142,95.697395 227.568283,82.511749
        C248.096237,68.869675 274.238373,72.783104 290.791473,92.230019
    z"/>
        <path fill="#000000" opacity="1.000000" stroke="none"
        d="
    M164.138702,142.693314
        C186.509567,153.230759 196.736755,177.444855 188.995026,201.248474
        C181.963531,222.868347 157.917679,236.590347 135.252426,231.917206
        C111.992920,227.121521 96.006355,205.931702 97.513390,182.423767
        C99.606033,149.781052 133.449417,130.200714 161.035217,141.722855
        C161.925232,142.094589 162.935135,142.179260 164.138702,142.693314
    z"/>
        <path fill="#000000" opacity="1.000000" stroke="none"
        d="
    M218.124603,343.133850
        C235.741577,323.766663 264.235443,321.238525 283.589355,337.080444
        C303.726562,353.563538 306.855865,382.809479 290.666931,403.226776
        C274.727814,423.329102 245.408585,426.777283 224.966675,410.953735
        C204.647202,395.224915 200.804413,366.118835 216.308273,345.332977
        C216.805420,344.666473 217.360565,344.043243 218.124603,343.133850
    z"/>

    </g> </svg>